<svg width="24" height="24" viewBox="0 0 24 24" fill="none" xmlns="http://www.w3.org/2000/svg">
<path d="M4.91611 3.37508C4.81314 3.2795 4.67812 3.22591 4.53762 3.22487C4.39713 3.22383 4.26133 3.2754 4.15694 3.36944C4.05256 3.46348 3.98715 3.59318 3.97357 3.73302C3.96 3.87286 3.99926 4.01272 4.08361 4.12508L6.04111 6.28133C2.54611 8.33445 1.0508 11.6251 0.986113 11.7723C0.954062 11.8443 0.9375 11.9222 0.9375 12.001C0.9375 12.0798 0.954062 12.1578 0.986113 12.2298C1.01799 12.302 1.79799 14.0316 3.53986 15.7735C5.15611 17.3879 7.93299 19.3126 11.9999 19.3126C13.6998 19.3229 15.3815 18.963 16.9283 18.2579L19.0846 20.6288C19.185 20.7392 19.3252 20.8052 19.4743 20.8122C19.6234 20.8193 19.7692 20.7668 19.8796 20.6663C19.9899 20.5659 20.0559 20.4257 20.063 20.2766C20.07 20.1275 20.0175 19.9817 19.917 19.8713L4.91611 3.37508ZM9.47424 10.0613L13.693 14.7038C13.0596 15.0996 12.3073 15.2604 11.5675 15.1581C10.8276 15.0559 10.1472 14.6971 9.6449 14.1443C9.14261 13.5916 8.85036 12.88 8.81917 12.1338C8.78798 11.3875 9.01982 10.6541 9.47424 10.0613ZM11.9999 18.1876C9.05799 18.1876 6.48924 17.117 4.36393 15.0066C3.47282 14.1214 2.71888 13.108 2.12705 12.0001C2.52924 11.2313 4.01143 8.70195 6.81455 7.13352L8.7083 9.2157C8.03406 10.0147 7.67301 11.0313 7.6923 12.0766C7.71159 13.1218 8.10992 14.1245 8.81318 14.898C9.51644 15.6715 10.4767 16.1633 11.5154 16.2817C12.5541 16.4002 13.6005 16.1373 14.4599 15.542L16.1296 17.3795C14.8205 17.921 13.4165 18.1958 11.9999 18.1876ZM12.5999 8.86883C12.4533 8.84086 12.3238 8.7558 12.24 8.63238C12.1561 8.50896 12.1247 8.35728 12.1527 8.2107C12.1806 8.06413 12.2657 7.93467 12.3891 7.85081C12.5125 7.76694 12.6642 7.73554 12.8108 7.76352C13.7268 7.94146 14.5607 8.41062 15.1883 9.10109C15.8159 9.79155 16.2036 10.6663 16.2936 11.5951C16.3005 11.6686 16.2927 11.7428 16.2709 11.8134C16.2491 11.884 16.2135 11.9496 16.1664 12.0064C16.1192 12.0633 16.0613 12.1103 15.9959 12.1447C15.9306 12.1792 15.8591 12.2004 15.7855 12.2073H15.733C15.5923 12.2079 15.4565 12.1557 15.3524 12.0611C15.2483 11.9666 15.1834 11.8364 15.1705 11.6963C15.1036 11.0111 14.8173 10.3657 14.3541 9.85621C13.891 9.34676 13.2757 9.00045 12.5999 8.86883ZM23.0136 12.2298C22.9752 12.316 22.0414 14.386 19.933 16.2723C19.8783 16.3235 19.8139 16.3633 19.7436 16.3894C19.6733 16.4154 19.5985 16.4271 19.5236 16.4238C19.4488 16.4205 19.3753 16.4023 19.3075 16.3702C19.2398 16.3381 19.1791 16.2928 19.1292 16.2369C19.0792 16.1811 19.0409 16.1158 19.0165 16.0449C18.9921 15.974 18.9821 15.899 18.9871 15.8242C18.9921 15.7494 19.012 15.6764 19.0457 15.6094C19.0793 15.5424 19.126 15.4828 19.183 15.4341C20.2728 14.4549 21.1831 13.2927 21.8727 12.0001C21.2807 10.8922 20.5268 9.87888 19.6358 8.99352C17.5105 6.8832 14.9417 5.81258 11.9999 5.81258C11.3815 5.81176 10.7641 5.86193 10.1539 5.96258C10.0805 5.97643 10.005 5.97549 9.93187 5.95983C9.85877 5.94416 9.78952 5.91408 9.72818 5.87135C9.66684 5.82861 9.61463 5.77408 9.57461 5.71093C9.53459 5.64778 9.50756 5.57729 9.4951 5.50358C9.48264 5.42987 9.48499 5.35441 9.50203 5.28161C9.51907 5.20882 9.55045 5.14016 9.59433 5.07963C9.63822 5.0191 9.69372 4.96793 9.75761 4.92911C9.8215 4.89029 9.89249 4.86459 9.96643 4.85352C10.6385 4.7419 11.3186 4.6864 11.9999 4.68758C16.0667 4.68758 18.8436 6.6132 20.4599 8.22758C22.2017 9.96945 22.9817 11.6963 23.0136 11.7723C23.0457 11.8443 23.0622 11.9222 23.0622 12.001C23.0622 12.0798 23.0457 12.1578 23.0136 12.2298Z" fill="#1A1C1E"/>
</svg>
