<svg width="25" height="24" viewBox="0 0 25 24" fill="none" xmlns="http://www.w3.org/2000/svg">
<path fill-rule="evenodd" clip-rule="evenodd" d="M5.11909 7.73394C4.10065 8.48834 3.5 9.68076 3.5 10.9482V17.2666C3.5 19.4757 5.29086 21.2666 7.5 21.2666H10.5H14.5H17.5C19.7091 21.2666 21.5 19.4757 21.5 17.2666V10.9482C21.5 9.68076 20.8993 8.48834 19.8809 7.73394L14.2857 3.58933C13.2249 2.80356 11.7751 2.80356 10.7143 3.58933L5.11909 7.73394ZM10.5 15.5166C10.0858 15.5166 9.75 15.8524 9.75 16.2666C9.75 16.6808 10.0858 17.0166 10.5 17.0166H14.5C14.9142 17.0166 15.25 16.6808 15.25 16.2666C15.25 15.8524 14.9142 15.5166 14.5 15.5166H10.5Z" fill="#A6A6A6"/>
</svg>
