<svg width="24" height="24" viewBox="0 0 24 24" fill="none" xmlns="http://www.w3.org/2000/svg">
<path d="M0.571533 5.13714C0.571533 4.50857 1.08125 4 1.70868 4H10.863C11.1646 4 11.4538 4.11981 11.667 4.33306C11.8803 4.54632 12.0001 4.83555 12.0001 5.13714C12.0001 5.43873 11.8803 5.72797 11.667 5.94122C11.4538 6.15448 11.1646 6.27429 10.863 6.27429H1.70868C1.40709 6.27429 1.11785 6.15448 0.904595 5.94122C0.691339 5.72797 0.571533 5.43873 0.571533 5.13714ZM0.571533 12C0.571533 11.3714 1.08125 10.8629 1.70868 10.8629H22.2915C22.5931 10.8629 22.8824 10.9827 23.0956 11.1959C23.3089 11.4092 23.4287 11.6984 23.4287 12C23.4287 12.3016 23.3089 12.5908 23.0956 12.8041C22.8824 13.0173 22.5931 13.1371 22.2915 13.1371H1.70868C1.40709 13.1371 1.11785 13.0173 0.904595 12.8041C0.691339 12.5908 0.571533 12.3016 0.571533 12ZM1.70868 17.7257C1.40709 17.7257 1.11785 17.8455 0.904595 18.0588C0.691339 18.272 0.571533 18.5613 0.571533 18.8629C0.571533 19.1644 0.691339 19.4537 0.904595 19.6669C1.11785 19.8802 1.40709 20 1.70868 20H15.4344C15.736 20 16.0252 19.8802 16.2385 19.6669C16.4517 19.4537 16.5715 19.1644 16.5715 18.8629C16.5715 18.5613 16.4517 18.272 16.2385 18.0588C16.0252 17.8455 15.736 17.7257 15.4344 17.7257H1.70868Z" fill="#02A479"/>
</svg>
