<svg width="24" height="24" viewBox="0 0 24 24" fill="none" xmlns="http://www.w3.org/2000/svg">
<path d="M3.30614 21.246H20.6933C22.7929 21.246 23.8476 20.2015 23.8476 18.1324V5.86711C23.8476 3.79797 22.7929 2.75354 20.6933 2.75354H3.30614C1.21686 2.75397 0.151855 3.78854 0.151855 5.86711V18.1328C0.151855 20.2118 1.21686 21.246 3.30614 21.246ZM16.8361 11.9751C16.384 11.5735 15.8719 11.3623 15.3297 11.3623C14.767 11.3623 14.2746 11.5534 13.8126 11.9653L9.27271 16.0234L7.41443 14.3357C6.99229 13.9641 6.54014 13.7631 6.05843 13.7631C5.61614 13.7631 5.18414 13.9543 4.77271 14.3258L1.76928 17.0271V5.94854C1.76928 4.90368 2.33157 4.3714 3.33614 4.3714H20.6633C21.6576 4.3714 22.2301 4.90368 22.2301 5.94854V17.0378L16.8361 11.9751ZM7.63514 12.0857C8.93114 12.0857 9.99571 11.0211 9.99571 9.71525C9.99571 8.41968 8.93114 7.34483 7.63514 7.34483C6.32971 7.34483 5.26514 8.41968 5.26514 9.71525C5.26616 10.3435 5.51617 10.9458 5.9604 11.3901C6.40463 11.8344 7.00685 12.0846 7.63514 12.0857Z" fill="#1A1C1E"/>
</svg>
