<svg width="25" height="24" viewBox="0 0 25 24" fill="none" xmlns="http://www.w3.org/2000/svg">
<path d="M2.57129 5.995C2.57129 5.445 3.01729 5 3.56629 5H11.5763C11.8402 5 12.0933 5.10483 12.2799 5.29143C12.4665 5.47803 12.5713 5.73111 12.5713 5.995C12.5713 6.25889 12.4665 6.51197 12.2799 6.69857C12.0933 6.88517 11.8402 6.99 11.5763 6.99H3.56629C3.3024 6.99 3.04932 6.88517 2.86272 6.69857C2.67612 6.51197 2.57129 6.25889 2.57129 5.995ZM2.57129 12C2.57129 11.45 3.01729 11.005 3.56629 11.005H21.5763C21.8402 11.005 22.0933 11.1098 22.2799 11.2964C22.4665 11.483 22.5713 11.7361 22.5713 12C22.5713 12.2639 22.4665 12.517 22.2799 12.7036C22.0933 12.8902 21.8402 12.995 21.5763 12.995H3.56629C3.3024 12.995 3.04932 12.8902 2.86272 12.7036C2.67612 12.517 2.57129 12.2639 2.57129 12ZM3.56629 17.01C3.3024 17.01 3.04932 17.1148 2.86272 17.3014C2.67612 17.488 2.57129 17.7411 2.57129 18.005C2.57129 18.2689 2.67612 18.522 2.86272 18.7086C3.04932 18.8952 3.3024 19 3.56629 19H15.5763C15.8402 19 16.0933 18.8952 16.2799 18.7086C16.4665 18.522 16.5713 18.2689 16.5713 18.005C16.5713 17.7411 16.4665 17.488 16.2799 17.3014C16.0933 17.1148 15.8402 17.01 15.5763 17.01H3.56629Z" fill="#A6A6A6"/>
</svg>
