<svg width="25" height="24" viewBox="0 0 25 24" fill="none" xmlns="http://www.w3.org/2000/svg">
<path d="M9.875 3.75C9.0725 3.75 8.3735 4.206 7.9295 4.8285C7.4855 5.451 7.25 6.255 7.25 7.125C7.25 7.995 7.4855 8.79975 7.9295 9.42225C8.3735 10.0447 9.0725 10.5 9.875 10.5C10.6775 10.5 11.3765 10.044 11.8205 9.4215C12.2645 8.799 12.5 7.995 12.5 7.125C12.5 6.255 12.2645 5.45025 11.8205 4.82775C11.3765 4.20525 10.6775 3.75 9.875 3.75ZM12.5 7.125C12.5 7.995 12.7355 8.79975 13.1795 9.42225C13.6235 10.0447 14.3232 10.5 15.125 10.5C15.9275 10.5 16.6265 10.044 17.0705 9.4215C17.5145 8.799 17.75 7.995 17.75 7.125C17.75 6.255 17.5145 5.45025 17.0705 4.82775C16.6265 4.20525 15.9275 3.75 15.125 3.75C14.3225 3.75 13.6235 4.206 13.1795 4.8285C12.7355 5.451 12.5 6.255 12.5 7.125ZM9.875 5.25C10.109 5.25 10.367 5.367 10.6025 5.6955C10.835 6.02325 11 6.54525 11 7.125C11 7.70475 10.835 8.2275 10.6025 8.5545C10.367 8.883 10.109 9 9.875 9C9.641 9 9.383 8.883 9.1475 8.5545C8.915 8.22675 8.75 7.70475 8.75 7.125C8.75 6.54525 8.915 6.0225 9.1475 5.6955C9.383 5.367 9.641 5.25 9.875 5.25ZM15.125 5.25C15.359 5.25 15.617 5.367 15.8525 5.6955C16.085 6.02325 16.25 6.54525 16.25 7.125C16.25 7.70475 16.085 8.2275 15.8525 8.5545C15.617 8.883 15.359 9 15.125 9C14.891 9 14.633 8.883 14.3975 8.5545C14.165 8.22675 14 7.70475 14 7.125C14 6.54525 14.165 6.0225 14.3975 5.6955C14.633 5.367 14.891 5.25 15.125 5.25ZM6.125 9C5.3225 9 4.6235 9.456 4.1795 10.0785C3.7355 10.701 3.5 11.505 3.5 12.375C3.5 13.245 3.7355 14.0497 4.1795 14.6722C4.6235 15.2948 5.3225 15.75 6.125 15.75C6.9275 15.75 7.6265 15.294 8.0705 14.6715C8.5145 14.049 8.75 13.245 8.75 12.375C8.75 11.505 8.5145 10.7003 8.0705 10.0778C7.6265 9.45525 6.9275 9 6.125 9ZM18.875 9C18.0725 9 17.3735 9.456 16.9295 10.0785C16.4855 10.701 16.25 11.505 16.25 12.375C16.25 13.245 16.4855 14.0497 16.9295 14.6722C17.3735 15.2948 18.0725 15.75 18.875 15.75C19.6775 15.75 20.3765 15.294 20.8205 14.6715C21.2645 14.049 21.5 13.245 21.5 12.375C21.5 11.505 21.2645 10.7003 20.8205 10.0778C20.3765 9.45525 19.6775 9 18.875 9ZM6.125 10.5C6.359 10.5 6.617 10.617 6.8525 10.9455C7.085 11.2733 7.25 11.7952 7.25 12.375C7.25 12.9548 7.085 13.4775 6.8525 13.8045C6.617 14.133 6.359 14.25 6.125 14.25C5.891 14.25 5.633 14.133 5.3975 13.8045C5.165 13.4775 5 12.9548 5 12.375C5 11.7952 5.165 11.2725 5.3975 10.9455C5.633 10.617 5.891 10.5 6.125 10.5ZM18.875 10.5C19.109 10.5 19.367 10.617 19.6025 10.9455C19.835 11.2733 20 11.7952 20 12.375C20 12.9548 19.835 13.4775 19.6025 13.8045C19.367 14.133 19.109 14.25 18.875 14.25C18.641 14.25 18.383 14.133 18.1475 13.8045C17.915 13.4768 17.75 12.9548 17.75 12.375C17.75 11.7952 17.915 11.2725 18.1475 10.9455C18.383 10.617 18.641 10.5 18.875 10.5ZM12.5 12C11.5002 12 10.8027 12.6488 10.46 13.2188C10.1195 13.7887 9.9095 14.2627 9.71 14.4608C9.59525 14.5785 8.8715 14.8507 8.117 15.2355C7.73975 15.4282 7.3595 15.6855 7.03925 16.0792C6.71675 16.473 6.49925 17.0168 6.49925 17.6265C6.49925 19.0665 7.68425 20.2515 9.12425 20.2515C9.77375 20.2515 10.4518 20.0415 11.1155 19.854C11.7823 19.662 12.5 19.5 12.5 19.5C12.5 19.5 13.2177 19.662 13.883 19.8525C14.5475 20.04 15.2255 20.25 15.875 20.25C17.315 20.25 18.5 19.065 18.5 17.625C18.5 17.0295 18.2803 16.485 17.96 16.1025C17.6413 15.7177 17.2572 15.48 16.883 15.2812C16.133 14.8837 15.3958 14.5688 15.2892 14.4608C15.1093 14.283 14.9068 13.7933 14.5618 13.2203C14.2175 12.645 13.505 12 12.5 12ZM12.5 13.5C12.995 13.5 13.0498 13.62 13.2725 13.992C13.4975 14.3632 13.6655 14.994 14.21 15.5392C14.8288 16.1543 15.6103 16.2892 16.1795 16.5922C16.4645 16.7437 16.682 16.905 16.8125 17.061C16.9423 17.2162 17 17.358 17 17.6235C17 18.2535 16.505 18.7485 15.875 18.7485C15.6575 18.7485 14.957 18.5835 14.3045 18.396C13.652 18.2107 13.112 17.9985 12.5 17.9985C11.888 17.9985 11.348 18.2107 10.6955 18.396C10.043 18.5835 9.3425 18.7485 9.125 18.7485C8.495 18.7485 8 18.2535 8 17.6235C8 17.3212 8.063 17.166 8.1875 17.013C8.312 16.86 8.5415 16.71 8.8205 16.5682C9.3785 16.2832 10.1555 16.1707 10.7892 15.537C11.339 14.9843 11.504 14.3333 11.7267 13.9657C11.9458 13.5983 11.9983 13.497 12.4992 13.497L12.5 13.5Z" fill="#A6A6A6"/>
</svg>
