<svg width="24" height="24" viewBox="0 0 24 24" fill="none" xmlns="http://www.w3.org/2000/svg">
<path d="M6.616 19C6.15533 19 5.771 18.846 5.463 18.538C5.155 18.23 5.00067 17.8453 5 17.384V15.461C5 15.319 5.04767 15.2003 5.143 15.105C5.23833 15.0096 5.35733 14.9616 5.5 14.961C5.64267 14.9603 5.76167 15.0083 5.857 15.105C5.95233 15.2016 6 15.3203 6 15.461V17.384C6 17.538 6.064 17.6793 6.192 17.808C6.32 17.9366 6.461 18.0006 6.615 18H17.385C17.5383 18 17.6793 17.936 17.808 17.808C17.9367 17.68 18.0007 17.5386 18 17.384V15.461C18 15.319 18.0477 15.2003 18.143 15.105C18.2383 15.0096 18.3573 14.9616 18.5 14.961C18.6427 14.9603 18.7617 15.0083 18.857 15.105C18.9523 15.2016 19 15.3203 19 15.461V17.384C19 17.8446 18.846 18.229 18.538 18.537C18.23 18.845 17.8453 18.9993 17.384 19H6.616ZM11.5 6.92698L9.529 8.89798C9.43167 8.99531 9.316 9.04631 9.182 9.05098C9.048 9.05565 8.926 9.00265 8.816 8.89198C8.70933 8.78198 8.655 8.66431 8.653 8.53898C8.651 8.41298 8.70533 8.29498 8.816 8.18498L11.434 5.56498C11.522 5.47831 11.6113 5.41731 11.702 5.38198C11.7933 5.34665 11.8927 5.32898 12 5.32898C12.1073 5.32898 12.2067 5.34665 12.298 5.38198C12.3893 5.41731 12.4787 5.47865 12.566 5.56598L15.184 8.18498C15.282 8.28231 15.3333 8.39698 15.338 8.52898C15.342 8.66098 15.291 8.78198 15.185 8.89198C15.0743 9.00265 14.9553 9.05898 14.828 9.06098C14.7007 9.06298 14.5817 9.00865 14.471 8.89798L12.5 6.92698V15.077C12.5 15.2196 12.4523 15.3386 12.357 15.434C12.2617 15.5293 12.1427 15.577 12 15.577C11.8573 15.577 11.7383 15.5293 11.643 15.434C11.5477 15.3386 11.5 15.2196 11.5 15.077V6.92698Z" fill="#1A1C1E"/>
</svg>
