<svg width="25" height="24" viewBox="0 0 25 24" fill="none" xmlns="http://www.w3.org/2000/svg">
<path fill-rule="evenodd" clip-rule="evenodd" d="M12.5 4.75C10.9812 4.75 9.75 5.98122 9.75 7.5C9.75 9.01878 10.9812 10.25 12.5 10.25C14.0188 10.25 15.25 9.01878 15.25 7.5C15.25 5.98122 14.0188 4.75 12.5 4.75ZM8.25 7.5C8.25 5.15279 10.1528 3.25 12.5 3.25C14.8472 3.25 16.75 5.15279 16.75 7.5C16.75 9.84721 14.8472 11.75 12.5 11.75C10.1528 11.75 8.25 9.84721 8.25 7.5Z" fill="#A6A6A6"/>
<path fill-rule="evenodd" clip-rule="evenodd" d="M4.75 18C4.75 15.3766 6.87665 13.25 9.5 13.25H15.5C18.1234 13.25 20.25 15.3766 20.25 18V20C20.25 20.9665 19.4665 21.75 18.5 21.75H6.5C5.5335 21.75 4.75 20.9665 4.75 20V18ZM9.5 14.75C7.70507 14.75 6.25 16.2051 6.25 18V20C6.25 20.1381 6.36193 20.25 6.5 20.25H18.5C18.6381 20.25 18.75 20.1381 18.75 20V18C18.75 16.2051 17.2949 14.75 15.5 14.75H9.5Z" fill="#A6A6A6"/>
</svg>
